<?xml version="1.0" encoding="UTF-8" standalone="no"?>
<svg
   xmlns:dc="http://purl.org/dc/elements/1.1/"
   xmlns:cc="http://creativecommons.org/ns#"
   xmlns:rdf="http://www.w3.org/1999/02/22-rdf-syntax-ns#"
   xmlns:svg="http://www.w3.org/2000/svg"
   xmlns="http://www.w3.org/2000/svg"
   viewBox="0 0 595.27557 841.88977"
   id="svg2"
   height="841.88977"
   width="595.27557"
   version="1.1">
  <metadata
     id="metadata30">
    <rdf:RDF>
      <cc:Work
         rdf:about="">
        <dc:format>image/svg+xml</dc:format>
        <dc:type
           rdf:resource="http://purl.org/dc/dcmitype/StillImage" />
      </cc:Work>
    </rdf:RDF>
  </metadata>
  <defs
     id="defs28" />
  <g
     id="g4">
    <path
       id="path6"
       style="fill:none;stroke:#000000;stroke-width:0.2;stroke-dasharray:none"
       d="m 408.4617,423.2381 c -0.0539,6e-4 -0.1077,0.001 -0.1616,6e-4 0.0539,5e-4 0.1077,0.001 0.1616,-6e-4 z" />
    <path
       id="path8"
       style="fill:#09120a;fill-rule:evenodd"
       d="m 300.4617,178.9719 c 0.5354,0 1.0686,-9e-4 1.599,-0.003 21.6825,-0.089 38.9265,-2.1602 62.363,-12.6292 2.6983,2.0274 2.1878,1.137 7.7602,6.2898 4.5459,-5.7143 16.8446,-19.9474 26.6615,-25.0015 9.091,14.0298 14.353,47.6671 10.0741,63.5391 5.5159,0.4229 23.7948,3.6992 40.2131,8.2582 -3.871,6.5951 -18.93,21.2505 -23.1834,26.6326 2.3405,1.3765 40.3639,18.1525 50.4683,22.8019 l -63.093,27.7639 77.1219,58.1332 -91.0383,-8.8866 23.2214,29.1226 -48.1019,-11.1203 14.2503,34.941 -54.419,-24.2615 -10.6098,34.0438 c -4.1014,13.1607 -9.4254,14.5007 -23.2874,14.6444 l 0,-5.5792 c -0.1786,-0.005 -0.3566,-0.0105 -0.5344,-0.0178 -9.5822,-0.3997 -18.8968,-1.4477 -19.3495,-13.4164 4.7477,10.0808 13.0439,10.2461 19.3597,10.2461 0.1735,0 0.3484,-0.001 0.5242,-0.003 l 0,-10.2796 -0.2637,0.003 -0.028,0 c -0.0216,0 -0.0428,-2e-4 -0.0644,0 l -0.028,-5e-4 c -11.617,-0.0822 -17.6446,-2.0897 -20.8327,-7.85 -8.507,-15.3697 -6.5636,-33.2547 -12.4849,-51.2226 -5.7393,-17.4147 -6.4636,-34.8988 -28.4913,-49.8767 20.5639,7.6019 28.7861,35.0231 38.774,67.9674 0.2619,-9.7455 -0.1616,-12.8248 -1.5571,-18.9043 3.5555,4.9723 6.1288,17.9158 6.7844,37.5387 0.1151,3.4489 -0.0895,6.2169 1.0704,9.5516 1.2311,3.5382 3.4815,5.3906 4.1562,6.1053 -0.9907,-2.6105 -1.8888,-14.1787 3.3791,-20.9688 -0.6522,3.3523 -0.6301,10.2694 1.3459,13.9958 0.4445,-1.2027 0.6619,-2.3862 2.3171,-4.6542 0.002,3.0371 0.3464,4.7237 0.9521,4.784 0.9797,0.0732 1.0823,-1.6732 2.3916,-2.9324 0.9848,1.7246 1.4301,3.1337 2.2553,6.7377 0.1145,-0.5003 0.2216,-0.9593 0.324,-1.3816 l 0,-19.5588 -0.1863,0.254 c -5.2806,-5.9222 -8.7871,-12.8764 -9.405,-20.9466 2.887,10.3974 8.4157,8.759 9.405,12.1881 0.0479,-0.1891 0.1112,-0.3634 0.1863,-0.5258 l 0,-50.2668 c -0.2379,0.013 -0.4,0.009 -0.6803,-0.0116 -10.8034,-0.8221 -22.5871,-7.1173 -32.4842,-10.4862 4.3662,-30.1626 -17.6222,-38.1416 -70.9132,-39.5538 -29.1036,-0.7713 -56.939,4.2069 -60.569,3.8429 22.1068,-11.88 52.3839,-19.3805 65.4953,-34.4004 -12.731,-6.9866 -28.9278,-7.9413 -42.8967,-12.3664 l 29.8834,-6.3888 12.5187,8.3064 c -7.6292,-13.2395 -7.2542,-35.9271 -3.8311,-52.7258 -0.9153,11.1129 0.7934,22.6377 4.0726,29.8375 0.0825,-2.7616 -0.0289,-4.5667 1.468,-7.8149 0.0114,2.0191 -0.5354,10.3218 1.9959,16.4143 0.3844,-5.025 0.6905,-9.9025 2.2745,-13.2202 0.5735,3.424 0.1264,15.0077 3.8503,20.9616 -0.3149,-5.1395 -0.2973,-9.661 0.4969,-13.2684 1.0117,3.4793 2.2629,14.2798 4.6642,17.0292 -0.6563,-4.2064 -0.5797,-9.3481 0.3092,-10.9188 0.735,3.3814 5.1599,14.0808 9.5267,17.1105 -6.2997,3.5529 -11.8562,3.8832 -19.311,2.9744 5.3087,9.5575 16.1884,4.5309 25.2941,15.9063 -4.1817,-18.5641 12.0623,-21.5527 11.0996,-38.7119 -0.7265,2.7853 -1.9426,4.4246 -2.8508,4.2763 -0.4527,-0.0734 -1.1991,-0.9124 -1.4876,-1.2364 -5.2858,-5.9352 -16.7335,-34.4577 -35.5224,-56.8097 0.1945,-0.3254 0.3889,-0.6381 0.5854,-0.9267 18.3679,14.7368 30.9588,31.4567 38.2683,47.5155 25.1991,-7.7097 37.4417,6.5676 57.5671,6.0267 0.4204,-0.0107 0.794,-0.013 1.1761,-0.01 l 0,-26.6071 z m 0,127.2554 0,-23.5082 c -5.1696,-0.007 -10.359,0.001 -13.2863,0.001 -1.5531,0 -4.3438,-4.049 -5.9374,-6.4038 -2.4758,4.3518 -4.9516,8.7035 -7.4274,13.0556 7.187,7.0863 16.2621,16.8009 26.6511,16.855 z m 0,-65.4412 0,-3.1399 -5.6911,0 c 0.6876,-9.6126 0.5502,-18.4813 -0.5777,-27.7634 -0.1568,8.4561 -0.7243,15.755 -2.971,23.9624 -4.0938,-5.6401 -7.1737,-8.6139 -12.5314,-12.5776 -2.348,-1.7368 -7.6686,-3.7655 -9.4363,-6.1217 -1.408,-1.8768 -0.0819,-7.4877 0.7588,-9.5598 -1.6154,1.4873 -2.3757,3.5456 -2.7243,6.2492 -0.3833,2.9739 0.5539,4.5621 2.8119,6.5356 3.2018,2.7978 7.8092,5.1979 11.6516,8.7701 6.7297,6.2566 9.9422,14.4088 3.2794,18.0102 -0.2296,0.1239 -1.3456,0.5531 -2.1362,0.6242 -1.4259,0.1273 -0.4825,-0.4884 0.0419,-0.7863 5.0996,-2.9002 2.4052,-5.4445 -2.3627,-5.3513 -0.947,0.0182 -2.4066,-1.2342 -3.3307,-1.7518 l -23.9975,-13.4356 c -12.4929,-4.1471 -20.6892,6.3198 -20.3199,13.5518 0.1128,2.2133 2.2487,4.9899 3.5643,6.1983 -1.457,-2.5487 -0.9561,-7.5989 -0.2908,-7.6076 0.5502,-0.007 0.6877,2.4993 1.5837,4.0626 1.9573,3.4157 6.3425,5.8957 11.0197,8.1881 3.8401,1.8819 7.9778,4.4119 11.9457,5.3581 4.2245,1.0071 8.5771,0.6837 11.1422,-0.2787 -6.5872,5.5171 -21.5482,1.0435 -32.6656,-7.0123 6.3071,9.6369 18.0374,17.6539 36.9071,9.7582 6.3326,-2.6498 7.6801,-12.0075 18.5964,-10.7186 -0.1511,-3.2916 0.2335,-4.3104 1.4853,-5.1642 l 4.2472,0 z m -15.5282,-2.9746 c -5.0454,-7.1212 -10.8944,-10.9599 -18.8158,-12.9725 6.2285,3.6357 11.7626,10.4865 18.8158,12.9725 z m 30.3049,0 c 5.0454,-7.1212 10.8944,-10.9599 18.8158,-12.9725 -6.2286,3.6357 -11.7626,10.4865 -18.8158,12.9725 z m -62.6808,-7.5192 c 5.7503,2.8916 9.5238,4.5876 15.0483,7.2864 0.4079,0.1993 1.0771,1.073 0.3095,2.5901 -4.5995,9.0822 -16.4744,2.5985 -15.3578,-9.8765 z m 95.3606,0 c -5.7504,2.8916 -9.5239,4.5876 -15.0483,7.2864 -0.4079,0.1993 -1.0772,1.073 -0.3096,2.5901 4.5995,9.0822 16.4744,2.5985 15.3579,-9.8765 z m 38.0741,12.2706 c -3.4112,2.9605 -5.2951,11.5404 -5.4879,14.9973 -5.8796,0.0674 -15.3847,1.6109 -24.6384,3.9353 -20.5047,5.1505 -33.2023,9.8014 -27.3943,25.7284 0.0277,-3.9249 2.5432,-12.6995 8.1805,-15.2697 -2.7899,3.2956 -3.07,5.6872 -2.6932,8.6947 1.7373,-4.9399 8.3766,-10.1582 17.2836,-13.5368 9.7288,-3.6902 21.9045,-5.5404 30.4291,-5.6078 1.6835,-0.0133 2.7354,-0.9879 2.6657,-2.4375 -0.3132,-6.5098 0.7484,-11.7207 1.6549,-16.5039 z m 7.7275,-2.4789 c -0.5088,4.7784 -0.5641,11.6229 0.4127,15.0797 16.725,0.1925 32.7076,3.4427 46.8746,7.1059 -17.0552,-1.8728 -33.2028,-3.0019 -51.2484,-2.3958 -0.3578,-8.263 1.1004,-14.3362 3.9611,-19.7898 z m -179.5515,2.4789 c 3.4112,2.9605 5.2951,11.5404 5.4878,14.9973 5.8796,0.0674 15.3848,1.6109 24.6385,3.9353 20.5047,5.1505 33.2022,9.8014 27.3943,25.7284 -0.0278,-3.9249 -2.5433,-12.6995 -8.1805,-15.2697 2.7898,3.2956 3.0699,5.6872 2.6932,8.6947 -1.7374,-4.9399 -8.3767,-10.1582 -17.2837,-13.5368 -9.7288,-3.6902 -21.9045,-5.5404 -30.4291,-5.6078 -1.6835,-0.0133 -2.7354,-0.9879 -2.6657,-2.4375 0.3132,-6.5098 -0.7483,-11.7207 -1.6548,-16.5039 z m -7.7276,-2.4789 c 0.5088,4.7784 0.5641,11.6229 -0.4127,15.0797 -16.725,0.1925 -32.7076,3.4427 -46.8746,7.1059 17.0553,-1.8728 33.2028,-3.0019 51.2485,-2.3958 0.3577,-8.263 -1.1005,-14.3362 -3.9612,-19.7898 z m 92.8103,10.3697 c -12.0804,-1.1968 -14.3572,0.7546 -19.3107,9.6678 7.3998,-6.9961 12.0764,-8.7865 19.3107,-9.6678 z m -6.3541,6.9409 c -1.3924,-0.7444 -3.0714,-0.8779 -6.0999,-0.193 -2.3409,0.5295 -6.0772,5.7421 -9.7438,6.874 -4.4263,1.3663 -5.7997,0.7223 -14.8972,-0.4011 5.294,3.1374 10.7566,5.4479 14.4088,4.9867 3.0251,-0.3821 5.0689,-2.8239 9.3517,-4.9062 1.342,-0.6523 3.0342,-0.1851 4.7656,-0.5896 1.5276,-0.3566 3.6057,-2.0132 4.4014,-3.8288 -2.0259,1.2651 -3.4569,1.4596 -6.9321,1.6246 -0.9794,0.0465 -0.9185,-0.6806 -0.3974,-1.137 1.5499,-1.3578 2.6926,-1.9865 5.1429,-2.4296 z m 8.2298,-6.9409 c 12.0804,-1.1968 14.3572,0.7546 19.3107,9.6678 -7.3998,-6.9961 -12.0764,-8.7865 -19.3107,-9.6678 z m 6.3541,6.9409 c 1.3924,-0.7444 3.0714,-0.8779 6.0999,-0.193 2.3408,0.5295 6.0772,5.7421 9.7438,6.874 4.4263,1.3663 5.7997,0.7223 14.8972,-0.4011 -5.294,3.1374 -10.7566,5.4479 -14.4088,4.9867 -3.0251,-0.3821 -5.0689,-2.8239 -9.3518,-4.9062 -1.3419,-0.6523 -3.0342,-0.1851 -4.7656,-0.5896 -1.5276,-0.3566 -3.6056,-2.0132 -4.4013,-3.8288 2.0259,1.2651 3.4568,1.4596 6.9321,1.6246 0.9794,0.0465 0.9184,-0.6806 0.3974,-1.137 -1.55,-1.3578 -2.6926,-1.9865 -5.1429,-2.4296 z m 5.6481,64.1188 c 1.7469,-2.5755 3.1725,-3.9849 6.1698,-4.86 1.9276,-0.5623 1.429,0.1089 1.4721,1.9083 0.1907,7.8985 -0.9709,14.9604 -8.3381,24.0237 0.1899,-5.802 0.9059,-12.1306 -0.0499,-18.0148 -0.256,-1.5806 -0.1792,-1.6937 0.7461,-3.0572 z m -1.658,0.9193 c 0.0867,4.0723 -0.8133,6.1844 -3.9209,11.147 0.0864,-2.9914 0.0411,-6.2544 -0.394,-9.2883 -0.1511,-1.0559 0.2548,-2.5234 1.0329,-3.2896 0.8955,-0.8819 3.2445,-0.3387 3.282,1.4309 z m -4.9167,2.3139 c 0.2639,3.8002 -1.0364,4.1602 -4.7588,8.7908 -0.005,-2.7915 0.5295,-5.8362 -0.1335,-8.6672 -0.2302,-0.9856 -0.2424,-2.3547 0.7078,-3.0699 1.0933,-0.8229 4.0702,1.2952 4.1845,2.9463 z m -19.2413,-3.2332 c -1.747,-2.5755 -3.1726,-3.9849 -6.1699,-4.86 -1.9276,-0.5623 -1.429,0.1089 -1.472,1.9083 -0.1908,7.8985 0.9708,14.9604 8.3381,24.0237 -0.19,-5.802 -0.906,-12.1306 0.0499,-18.0148 0.2559,-1.5806 0.1791,-1.6937 -0.7461,-3.0572 z m 1.658,0.9193 c -0.0868,4.0723 0.8132,6.1844 3.9208,11.147 -0.0864,-2.9914 -0.0411,-6.2544 0.3941,-9.2883 0.1511,-1.0559 -0.2549,-2.5234 -1.033,-3.2896 -0.8954,-0.8819 -3.2445,-0.3387 -3.2819,1.4309 z m 4.9167,2.3139 c -0.2639,3.8002 1.0363,4.1602 4.7588,8.7908 0.005,-2.7915 -0.5295,-5.8362 0.1335,-8.6672 0.2301,-0.9856 0.2423,-2.3547 -0.7078,-3.0699 -1.0934,-0.8229 -4.0703,1.2952 -4.1845,2.9463 z m -31.8592,28.3697 -13.9462,-0.9087 -17.5668,8.8696 -12.225,31.949 43.738,-39.9099 z m -4.2211,1.1197 c -10.4255,6.4449 -21.8415,15.5342 -32.4323,25.7803 2.1733,-5.1506 4.7591,-10.3011 6.9321,-15.4517 8.6653,-5.2608 16.3398,-11.0999 25.5002,-10.3286 z m -2.4814,-18.4719 -29.7085,-5.7841 c -19.696,11.4579 -24.3729,19.6934 -39.1176,39.4968 l 68.8261,-33.7127 z m -8.9272,0.2109 c -6.6018,-0.8813 -12.6467,-1.7005 -19.2489,-2.5821 -7.9912,5.1437 -22.6463,12.4152 -29.1107,23.7353 10.7856,-7.408 16.4755,-12.1615 26.5598,-17.38 1.3847,-0.8269 3.3259,-0.3297 1.1412,1.2234 l -19.1185,12.3556 39.7771,-17.3522 z m -7.3408,-33.217 -38.2916,-13.0552 -78.0689,58.8319 116.3605,-45.7767 z m -11.7607,-0.3305 -26.7381,-9.5848 -51.3309,37.3482 c 15.6104,-9.5026 30.9634,-19.4188 46.5735,-28.9211 3.1938,-1.9443 4.165,-0.4807 1.4766,1.5358 l -26.5935,18.317 c 13.0646,-5.8941 25.7689,-12.6882 38.8338,-18.582 2.1024,-0.9485 2.3544,0.6151 0.9896,1.3054 l -18.1194,10.8314 34.9084,-12.2499 z m 111.7434,50.6888 13.9462,-0.9087 17.5669,8.8696 12.2249,31.949 -43.738,-39.9099 z m 4.504,1.1197 c 10.4255,6.4449 21.8415,15.5342 32.4323,25.7803 -2.1733,-5.1506 -4.7591,-10.3011 -6.9321,-15.4517 -8.6652,-5.2608 -16.3398,-11.0999 -25.5002,-10.3286 z m 1.025,-18.8025 29.7085,-5.7841 c 19.0358,13.2758 26.8484,19.1977 38.2921,39.3316 l -68.0006,-33.5475 z m 8.7956,0.5415 c 6.6019,-0.8813 12.6468,-1.7005 19.249,-2.5821 7.9911,5.1437 22.6462,12.4152 29.1107,23.7353 -10.7856,-7.408 -16.4756,-12.1615 -26.5598,-17.38 -1.3848,-0.8269 -3.3259,-0.3297 -1.1413,1.2234 l 19.1186,12.3556 -39.7772,-17.3522 z m 6.9322,-33.217 38.2915,-13.0552 78.069,58.8319 -116.3605,-45.7767 z m 11.0582,-0.3305 26.7381,-9.5848 51.3309,37.3482 c -15.6104,-9.5026 -30.9634,-19.4188 -46.5735,-28.9211 -3.1938,-1.9443 -4.165,-0.4807 -1.4766,1.5358 l 26.5935,18.317 c -13.0646,-5.8941 -25.7689,-12.6882 -38.8338,-18.582 -2.1025,-0.9485 -2.3545,0.6151 -0.9896,1.3054 l 18.1194,10.8314 -34.9084,-12.2499 z M 236.503,166.3404 c 23.5791,10.5327 40.8898,12.5651 62.7588,12.6301 0.3994,0.001 0.8008,0.001 1.2033,0.001 l 0,26.6071 c 0.2956,0.002 0.5967,0.009 0.9269,0.0156 19.9763,0.4164 32.2214,-13.7103 57.316,-6.0327 7.3094,-16.0588 19.9003,-32.7787 38.2683,-47.5155 0.2018,0.2965 0.4016,0.6177 0.6012,0.953 -18.7759,22.3481 -30.2168,50.8505 -35.5003,56.7834 -0.2885,0.324 -1.0349,1.163 -1.4876,1.2364 -0.9082,0.1483 -2.1243,-1.491 -2.8508,-4.2763 -0.9626,17.1592 15.2813,20.1478 11.0996,38.7119 9.1058,-11.3754 19.9854,-6.3488 25.2941,-15.9063 -7.4548,0.9088 -13.0113,0.5785 -19.311,-2.9744 4.3668,-3.0297 8.7917,-13.7291 9.5267,-17.1105 0.8889,1.5707 0.9655,6.7124 0.3092,10.9188 2.4013,-2.7494 3.6525,-13.5499 4.6642,-17.0292 0.7942,3.6074 0.8118,8.1289 0.4969,13.2684 3.7239,-5.9539 3.2768,-17.5376 3.8503,-20.9616 1.584,3.3177 1.8901,8.1952 2.2745,13.2202 2.5313,-6.0925 1.9845,-14.3952 1.9959,-16.4143 1.497,3.2482 1.3856,5.0533 1.468,7.8149 3.25,-7.1357 4.9567,-18.5194 4.0958,-29.5402 3.3667,16.7681 3.6919,39.2672 -3.8922,52.4285 l 12.5186,-8.3064 29.8834,6.3888 c -13.9688,4.4251 -30.1657,5.3798 -42.8967,12.3664 13.1114,15.0199 43.3885,22.5204 65.4954,34.4004 -3.6301,0.364 -31.4655,-4.6142 -60.569,-3.8429 -53.2911,1.4122 -75.2794,9.3912 -70.9132,39.5538 -9.9043,3.3715 -21.6981,9.6735 -32.5078,10.4879 l -0.1564,0.01 0,50.2597 c 1.3169,-2.8267 6.5579,-2.0197 9.0915,-12.2749 0.0822,6.5339 -4.532,15.0758 -9.0915,21.3078 l 0,19.5494 c 0.6335,-2.6113 1.0814,-3.8594 1.9281,-5.3419 1.3093,1.2592 1.4119,3.0056 2.3916,2.9324 0.6058,-0.0603 0.9499,-1.7469 0.9521,-4.784 1.6552,2.268 1.8726,3.4515 2.3171,4.6542 1.976,-3.7264 1.9981,-10.6435 1.3459,-13.9958 5.2679,6.7901 4.3699,18.3583 3.3792,20.9688 0.6746,-0.7147 2.925,-2.5671 4.1561,-6.1053 1.1599,-3.3347 0.9553,-6.1027 1.0704,-9.5516 0.6556,-19.6229 3.2289,-32.5664 6.7844,-37.5387 -1.3955,6.0795 -1.819,9.1588 -1.5571,18.9043 9.9879,-32.9443 18.2101,-60.3655 38.774,-67.9674 -22.0277,14.9779 -22.752,32.462 -28.4913,49.8767 -5.9213,17.9679 -3.9778,35.8529 -12.4849,51.2226 -3.1635,5.7158 -9.1239,7.736 -20.5656,7.8477 l 0,10.2796 c 6.6367,-0.063 14.8515,-1.3904 19.2296,-10.2433 0.317,10.6602 -10.0681,13.6874 -19.2296,13.4342 l 0,5.5775 c -13.862,-0.1415 -19.186,-1.4814 -23.2875,-14.6421 l -10.6098,-34.0438 -54.4189,24.2614 14.2503,-34.9409 -48.102,11.1203 23.2214,-29.1226 -91.0383,8.8866 77.1219,-58.1332 -63.0929,-27.7639 c 10.1043,-4.6494 48.1277,-21.4254 50.4683,-22.8019 -4.2534,-5.3822 -19.3125,-20.0376 -23.1835,-26.6326 16.4183,-4.559 34.6972,-7.8353 40.2132,-8.2582 -4.2789,-15.8721 0.983,-49.5094 10.074,-63.5392 9.817,5.0542 22.1156,19.2872 26.6616,25.0016 5.5723,-5.1528 5.0618,-4.2625 7.7601,-6.2898 z m 63.9621,71.3058 0,3.1399 2.766,0 c 1.2518,0.8538 1.6365,1.8726 1.4854,5.1642 10.9162,-1.2889 12.2638,8.0688 18.5964,10.7186 18.8697,7.8957 30.6,-0.1213 36.9071,-9.7582 -11.1175,8.0558 -26.0785,12.5294 -32.6656,7.0123 2.565,0.9624 6.9176,1.2858 11.1421,0.2787 3.9679,-0.9462 8.1057,-3.4762 11.9458,-5.3581 4.6771,-2.2924 9.0623,-4.7724 11.0197,-8.1881 0.896,-1.5633 1.0335,-4.07 1.5837,-4.0626 0.6653,0.009 1.1661,5.0589 -0.2909,7.6076 1.3156,-1.2084 3.4515,-3.985 3.5643,-6.1983 0.3694,-7.232 -7.827,-17.6989 -20.3199,-13.5518 l -23.9975,13.4356 c -0.9241,0.5176 -2.3837,1.77 -3.3307,1.7518 -4.7679,-0.0932 -7.4622,2.4511 -2.3627,5.3513 0.5244,0.2979 1.4678,0.9136 0.042,0.7863 -0.7906,-0.0711 -1.9066,-0.5003 -2.1362,-0.6242 -6.6629,-3.6014 -3.4504,-11.7536 3.2794,-18.0102 3.8423,-3.5722 8.4498,-5.9723 11.6515,-8.7701 2.2581,-1.9735 3.1952,-3.5617 2.812,-6.5356 -0.3487,-2.7036 -1.1089,-4.7619 -2.7244,-6.2492 0.8408,2.0721 2.1668,7.683 0.7588,9.5598 -1.7677,2.3562 -7.0883,4.3849 -9.4362,6.1217 -5.3578,3.9637 -8.4376,6.9375 -12.5314,12.5776 -2.2468,-8.2074 -2.8143,-15.5063 -2.971,-23.9624 -1.1279,9.2821 -1.2654,18.1508 -0.5777,27.7634 l -4.21,0 z m 0,45.0729 0,23.5085 0.0836,0.001 c 10.1511,0 19.1463,-9.5854 26.0782,-16.8565 -2.5308,-4.3521 -5.0616,-8.7038 -7.5923,-13.0556 -2.0387,2.7681 -3.9107,6.5787 -6.1229,6.4795 -2.9446,-0.0502 -7.687,-0.0706 -12.4466,-0.0771 z" />
    <path
       id="path10"
       style="fill:#09120a;fill-rule:evenodd"
       d="m 299.8222,134.8892 c 29.7334,0 57.3707,8.9855 80.3497,24.3861 -1.381,1.4287 -2.6963,2.846 -3.9163,4.2007 -21.9246,-14.4848 -48.1955,-22.9175 -76.4334,-22.9175 -27.8932,0 -53.8657,8.2301 -75.6272,22.3914 -1.2348,-1.3595 -2.5594,-2.7754 -3.9456,-4.1947 22.8235,-15.0837 50.1741,-23.866 79.5728,-23.866 z m 113.1528,54.6134 c 5.4167,6.8071 10.2308,14.1148 14.3648,21.8415 -2.5829,-0.5238 -5.0272,-0.9899 -7.2609,-1.3901 -2.1251,-3.67 -4.413,-7.2332 -6.8545,-10.6807 0.0757,-3.1036 -0.0121,-6.3938 -0.2494,-9.7707 z m 25.0415,47.4772 c 1.3113,4.2724 2.4293,8.6289 3.3452,13.06 -2.3547,-1.0573 -4.542,-2.042 -6.4556,-2.9089 -0.4275,-1.794 -0.889,-3.5745 -1.385,-5.3404 1.4947,-1.6067 2.997,-3.2072 4.4954,-4.8107 z m 6.1824,49.1508 c -0.428,9.36 -1.7478,18.4872 -3.8744,27.301 l -4.9538,-3.7341 c 1.5182,-6.8264 2.5344,-13.8416 3.007,-21.0056 l 5.8212,-2.5613 z m -18.9283,65.103 c -2.4665,4.2981 -5.1483,8.4569 -8.0295,12.4636 l -3.6776,-4.6119 c 1.9284,-2.7482 3.7604,-5.569 5.4898,-8.4586 l 6.2173,0.6069 z m -16.7267,23.4062 c -2.0994,2.3967 -4.2752,4.7248 -6.5271,6.9766 -3.9807,3.9807 -8.1955,7.7276 -12.617,11.2241 l -2.2323,-5.4731 c 3.7829,-3.064 7.4027,-6.3207 10.8411,-9.7591 1.4431,-1.4432 2.8531,-2.9203 4.231,-4.4261 l 6.3043,1.4576 z m -27.0417,24.0236 c -18.5525,12.7352 -40.2248,21.2519 -63.633,24.1699 2.3726,-1.5001 4.2543,-3.6042 5.8519,-6.6022 18.784,-3.2604 36.2752,-10.2948 51.662,-20.2957 l 6.1191,2.728 z m -98.1377,24.3596 c -23.8039,-2.6998 -45.8549,-11.1844 -64.7161,-24.0129 l 6.1359,-2.7354 c 15.6458,10.0684 33.4431,17.0813 52.5492,20.1943 1.639,2.9982 3.5768,5.0814 6.031,6.554 z m -72.1482,-29.4197 c -4.7776,-3.7117 -9.317,-7.715 -13.5888,-11.9869 -2.1747,-2.1747 -4.2777,-4.4203 -6.3107,-6.7297 l 6.3133,-1.4593 c 1.3068,1.4208 2.6407,2.816 4.0056,4.1809 3.7304,3.7303 7.6737,7.247 11.8074,10.5346 l -2.2268,5.4604 z m -28.2031,-29.0622 c -3.0866,-4.2279 -5.9493,-8.6301 -8.5708,-13.1885 l 6.2201,-0.6072 c 1.8881,3.1474 3.8959,6.2147 6.0199,9.1939 l -3.6692,4.6018 z m -23.4949,-50.292 c -2.2887,-9.2458 -3.6854,-18.8425 -4.0972,-28.6931 l 5.8067,2.5554 c 0.4734,7.655 1.5673,15.1427 3.2321,22.413 l -4.9416,3.7247 z m -1.366,-63.5743 c 1.0111,-5.008 2.2816,-9.9224 3.7958,-14.728 1.0018,1.0778 1.9982,2.1439 2.9656,3.1777 l 1.5103,1.614 c -0.6726,2.3233 -1.2872,4.6718 -1.8402,7.0433 -1.9483,0.8798 -4.123,1.8575 -6.4315,2.893 z m 13.9929,-39.0345 c 4.5249,-8.5039 9.8756,-16.503 15.9429,-23.8898 -0.284,3.3585 -0.4255,6.6489 -0.4105,9.7761 -2.9761,4.0674 -5.737,8.3021 -8.2641,12.6887 -2.0874,0.385 -4.3339,0.8221 -6.6855,1.3051 l -0.5828,0.1199 z" />
    <path
       id="path12"
       style="fill:#09120a;fill-rule:evenodd"
       d="m 232.774,425.5739 c -41.3541,0.3299 -86.0091,6.2784 -114.1591,-4.629 21.6428,3.9577 75.0606,0.2293 87.6308,-2.9018 -11.4741,-8.9309 -36.4059,-31.8833 -40.4521,-46.9075 4.3637,7.8449 38.5194,41.2223 66.9804,54.4383 z m 134.072,0 c 41.354,0.3299 86.0091,6.2784 114.1591,-4.629 -21.6428,3.9577 -75.0606,0.2293 -87.6308,-2.9018 11.474,-8.9309 36.4059,-31.8833 40.4521,-46.9075 -4.3637,7.8449 -38.5195,41.2223 -66.9804,54.4383 z" />
    <g
       id="g14">
      <path
         id="path16"
         style="fill:#1b1918;fill-rule:evenodd"
         d="m 142.0923,445.7132 -2.4554,6.3844 -0.7367,0 c 0.0981,-0.3367 0.1471,-0.5969 0.1471,-0.7809 0,-0.3368 -0.1553,-0.5664 -0.4663,-0.6888 -0.311,-0.1225 -0.9085,-0.1837 -1.7926,-0.1837 l -7.7587,0 0,23.6934 c 0,0.8957 0.229,1.5389 0.6874,1.9369 0.4583,0.398 1.2931,0.6585 2.5047,0.7809 l 0.54,0 0,0.597 -0.6874,-0.0459 -3.8141,-0.2296 -1.8498,0 -3.8141,0.2296 -0.6874,0 0.0491,-0.5511 0.5403,0 c 1.2112,-0.1224 2.0463,-0.3676 2.5044,-0.735 0.4583,-0.3674 0.6874,-1.0258 0.6874,-1.9828 l 0,-23.6934 -8.3971,0 c -0.9822,0 -1.7436,0.1684 -2.2836,0.5051 -0.5403,0.3368 -1.1375,1.1636 -1.7926,2.4803 l -0.5891,0 2.4554,-6.3844 0.7365,0 c -0.0981,0.3367 -0.1474,0.5969 -0.1474,0.7806 0,0.3371 0.1556,0.5667 0.4668,0.6891 0.311,0.1225 0.9082,0.1837 1.7924,0.1837 l 7.7587,0 0,-5.129 c 0,-0.8957 -0.2291,-1.5389 -0.6874,-1.9369 -0.4581,-0.4056 -1.2932,-0.6661 -2.5044,-0.7886 l -0.5403,0 0,-0.597 0.6877,0.0459 3.814,0.2296 1.8496,0 3.814,-0.2296 0.6874,0 -0.049,0.5511 -0.54,0 c -1.2116,0.1225 -2.0464,0.3676 -2.5047,0.7427 -0.4584,0.3673 -0.6874,1.0258 -0.6874,1.9828 l 0,5.129 8.3973,0 c 0.9822,0 1.743,-0.1684 2.2836,-0.5051 0.54,-0.3371 1.1376,-1.1636 1.7921,-2.4803 l 0.5896,0 z m 37.0757,31.7392 -0.6871,-0.0459 -3.814,-0.2296 -1.8499,0 -3.814,0.2296 -0.6874,0 0.0493,-0.5511 0.54,0 c 1.2113,-0.1224 2.0461,-0.3676 2.5044,-0.735 0.4581,-0.3674 0.6877,-1.0335 0.6877,-1.9828 l 0,-10.5109 -17.9733,0 0,10.5109 c 0,0.8881 0.229,1.5313 0.6874,1.9369 0.4583,0.398 1.2931,0.6585 2.5046,0.7809 l 0.54,0 0,0.597 -0.6876,-0.0459 -3.8141,-0.2296 -1.8496,0 -3.814,0.2296 -0.6874,0 0.0491,-0.5511 0.5402,0 c 1.2113,-0.1224 2.0461,-0.3676 2.5045,-0.735 0.4583,-0.3674 0.6874,-1.0335 0.6874,-1.9828 l 0,-22.3997 c 0,-0.8881 -0.2291,-1.5313 -0.6874,-1.9369 -0.4584,-0.398 -1.2932,-0.6582 -2.5045,-0.7809 l -0.5402,0 0,-0.597 0.6876,0.0459 3.8141,0.2296 1.8493,0 3.8143,-0.2296 0.6874,0 -0.0491,0.5511 -0.54,0 c -1.2115,0.1227 -2.0463,0.3676 -2.5046,0.735 -0.4584,0.375 -0.6874,1.0335 -0.6874,1.9905 l 0,7.4715 17.9733,0 0,-7.4715 c 0,-0.8958 -0.2296,-1.539 -0.6877,-1.9446 -0.4583,-0.398 -1.2931,-0.6582 -2.5044,-0.7809 l -0.54,0 0,-0.597 0.6871,0.0459 3.814,0.2296 1.8499,0 3.8141,-0.2296 0.6874,0 -0.0494,0.5511 -0.54,0 c -1.2112,0.1227 -2.046,0.3676 -2.5044,0.735 -0.4581,0.3674 -0.6877,1.0335 -0.6877,1.9828 l 0,22.3997 c 0,0.8881 0.2296,1.5313 0.6877,1.9369 0.4584,0.398 1.2932,0.6585 2.5044,0.7809 l 0.54,0 0,0.597 z m -7.071,-15.2955 0,-1.4697 -17.9733,0 0,1.4697 17.9733,0 z m 37.0267,9.5999 c -0.7529,1.2937 -1.2767,2.3961 -1.5712,3.2842 -0.2291,1.0258 -0.4255,1.8221 -0.5896,2.4114 l -7.7097,-0.2755 -7.6606,0 -3.8305,0.2755 -0.6874,0 0.049,-0.551 0.5403,0 c 1.2113,-0.1225 2.0461,-0.3677 2.5044,-0.7351 0.4584,-0.375 0.6874,-1.0335 0.6874,-1.9905 l 0,-22.4302 c 0,-0.8958 -0.229,-1.539 -0.6874,-1.9369 -0.4583,-0.4057 -1.2931,-0.6659 -2.5044,-0.7886 l -0.5403,0 -0.049,-0.597 0.6874,0.0459 3.8305,0.2296 15.3212,0 0.9332,4.9606 -0.6874,0 c -0.4258,-1.5692 -0.8595,-2.5415 -1.3017,-2.9012 -0.4416,-0.3597 -1.4159,-0.5437 -2.9216,-0.5437 l -8.7412,0 0,10.4729 11.0984,0 0,1.4697 -11.0984,0 0,10.7482 c 0,1.2554 0.1227,2.0134 0.3682,2.2736 0.2455,0.2603 0.9578,0.3907 2.1364,0.3907 l 5.2543,0 c 1.7354,0 2.9631,-0.2299 3.6831,-0.6891 0.7203,-0.4593 1.6044,-1.4698 2.6518,-3.0317 l 0.8348,-0.0918 z m 67.0317,-23.3796 -0.0493,0.551 -0.5403,0 c -1.2112,0.1225 -2.0457,0.3677 -2.5044,0.735 -0.4583,0.3674 -0.6874,1.0336 -0.6874,1.9829 l 0,0.7806 c 0,6.2394 -0.7038,11.3378 -2.1115,15.2958 -1.7351,4.8841 -4.6491,8.4668 -8.7412,10.7405 -2.3244,-1.2861 -4.2724,-3.0623 -5.8439,-5.3283 -1.4077,-1.9902 -2.5209,-4.3787 -3.3392,-7.1654 -0.8184,2.7255 -1.9316,5.0986 -3.3392,7.1195 -1.6044,2.2966 -3.5521,4.0881 -5.8439,5.3742 -4.0921,-2.2737 -7.0059,-5.8411 -8.741,-10.6946 -1.4076,-3.9274 -2.1118,-9.0411 -2.1118,-15.3417 l 0,-0.7806 c 0,-0.8881 -0.229,-1.539 -0.6953,-1.9369 -0.4669,-0.398 -1.3099,-0.6585 -2.5376,-0.781 l -0.5482,0 0,-0.551 0.6877,0 3.8302,0.2755 1.866,0 3.8302,-0.2755 0.6877,0 -0.0491,0.551 -0.5403,0 c -1.2112,0.1225 -2.046,0.3677 -2.5044,0.735 -0.4583,0.3674 -0.6874,1.0336 -0.6874,1.9829 l 0,0.6429 c 0,7.2499 0.6381,12.8996 1.9151,16.9339 1.2767,4.0422 3.1428,6.7215 5.5982,8.0458 2.4227,-1.2937 4.2806,-3.9883 5.5737,-8.0918 1.2935,-4.0957 1.9398,-9.7299 1.9398,-16.8879 l 0,-0.6429 c 0,-0.8881 -0.2291,-1.539 -0.6877,-1.9369 -0.4581,-0.398 -1.2932,-0.6585 -2.5044,-0.781 l -0.54,0 0,-0.551 0.6877,0 3.8137,0.2755 1.8496,0 3.814,-0.2755 0.6877,0 -0.049,0.551 -0.5406,0 c -1.2113,0.1225 -2.0458,0.3677 -2.5044,0.735 -0.4581,0.3674 -0.6871,1.0336 -0.6871,1.9829 l 0,0.6429 c 0,7.2499 0.638,12.8996 1.9148,16.9339 1.2767,4.0422 3.143,6.7215 5.5984,8.0458 2.4228,-1.2937 4.2803,-3.9883 5.5735,-8.0918 1.2931,-4.0957 1.94,-9.7299 1.94,-16.8879 l 0,-0.6429 c 0,-0.8881 -0.2293,-1.539 -0.6959,-1.9369 -0.4663,-0.398 -1.3096,-0.6585 -2.5373,-0.781 l -0.5482,0 0,-0.551 0.6874,0 3.8307,0.2755 1.8658,0 3.8304,-0.2755 0.6877,0 z m 15.518,-4.7311 c -1.408,0.5511 -2.4063,1.4851 -2.9959,2.8018 l -0.3926,0 c -0.5896,-1.3167 -1.5877,-2.2507 -2.9957,-2.8018 l 0,-0.3676 c 1.408,-0.5511 2.4061,-1.4851 2.9957,-2.8018 l 0.3926,0 c 0.5896,1.3167 1.5879,2.2507 2.9959,2.8018 l 0,0.3676 z m 2.2587,33.8063 -0.6874,-0.0459 -3.8305,-0.2296 -1.866,0 -3.8305,0.2296 -0.6871,0 0.049,-0.5511 0.54,0 c 1.2113,-0.1224 2.0464,-0.3676 2.5044,-0.735 0.4584,-0.3674 0.6877,-1.0335 0.6877,-1.9828 l 0,-22.3997 c 0,-0.8881 -0.2293,-1.5313 -0.6877,-1.9369 -0.458,-0.398 -1.2931,-0.6582 -2.5044,-0.7809 l -0.54,0 0,-0.597 0.6871,0.0459 3.8305,0.2296 1.8663,0 3.8302,-0.2296 0.6877,0 -0.0493,0.5511 -0.5483,0 c -1.2276,0.1227 -2.0709,0.3676 -2.5372,0.735 -0.4663,0.3674 -0.696,1.0335 -0.696,1.9828 l 0,22.3997 c 0,0.8881 0.2297,1.5313 0.696,1.9369 0.4663,0.398 1.3096,0.6585 2.5372,0.7809 l 0.5483,0 0,0.597 z m 34.8661,-31.7392 -2.4551,6.3844 -0.737,0 c 0.0984,-0.3367 0.1474,-0.5969 0.1474,-0.7809 0,-0.3368 -0.1553,-0.5664 -0.4663,-0.6888 -0.3109,-0.1225 -0.9088,-0.1837 -1.7926,-0.1837 l -7.759,0 0,23.6934 c 0,0.8957 0.2293,1.5389 0.6877,1.9369 0.4583,0.398 1.2931,0.6585 2.5044,0.7809 l 0.5403,0 0,0.597 -0.6874,-0.0459 -3.814,-0.2296 -1.8499,0 -3.8141,0.2296 -0.6876,0 0.0493,-0.5511 0.5403,0 c 1.2112,-0.1224 2.0463,-0.3676 2.5044,-0.735 0.4583,-0.3674 0.6874,-1.0258 0.6874,-1.9828 l 0,-23.6934 -8.3971,0 c -0.9822,0 -1.7436,0.1684 -2.2836,0.5051 -0.5403,0.3368 -1.1378,1.1636 -1.7926,2.4803 l -0.5891,0 2.4554,-6.3844 0.7365,0 c -0.0984,0.3367 -0.1474,0.5969 -0.1474,0.7806 0,0.3371 0.1556,0.5667 0.4668,0.6891 0.3107,0.1225 0.9082,0.1837 1.7921,0.1837 l 7.759,0 0,-5.129 c 0,-0.8957 -0.2291,-1.5389 -0.6874,-1.9369 -0.4581,-0.4056 -1.2932,-0.6661 -2.5044,-0.7886 l -0.5403,0 0,-0.597 0.6874,0.0459 3.814,0.2296 1.8499,0 3.814,-0.2296 0.6874,0 -0.049,0.5511 -0.5403,0 c -1.2113,0.1225 -2.0461,0.3676 -2.5044,0.7427 -0.4584,0.3673 -0.6877,1.0258 -0.6877,1.9828 l 0,5.129 8.3976,0 c 0.9822,0 1.7431,-0.1684 2.2833,-0.5051 0.54,-0.3371 1.1379,-1.1636 1.7924,-2.4803 l 0.5893,0 z m 33.7371,23.7469 -0.786,6.1093 c -0.9168,0.6429 -2.3982,1.1942 -4.4442,1.6534 -2.046,0.4592 -4.0348,0.6891 -5.9664,0.6891 -5.0091,0 -9.1666,-1.317 -12.4735,-3.9504 -3.4373,-2.7252 -5.1563,-6.2467 -5.1563,-10.5644 0,-4.1953 1.6538,-7.7933 4.9601,-10.794 3.4376,-3.0929 7.6606,-4.6392 12.6697,-4.6392 1.7351,0 3.3228,0.199 4.7631,0.597 1.4408,0.3979 2.8976,0.8115 4.3707,1.2401 0.36,0 0.6713,-0.0765 0.9332,-0.2296 l 0.3436,5.8793 -0.54,0 c -0.7532,-2.3884 -2.0461,-4.0881 -3.8798,-5.0984 -1.6039,-0.888 -3.8138,-1.3322 -6.6294,-1.3322 -3.7647,0 -6.8341,1.4011 -9.2072,4.2029 -2.3738,2.802 -3.5603,6.1778 -3.5603,10.1282 0,3.9501 1.4077,7.2113 4.223,9.7835 2.717,2.4806 5.991,3.7207 9.8215,3.7207 2.9463,0 5.1562,-0.4901 6.6294,-1.47 1.7351,-1.133 2.7666,-3.1079 3.0937,-5.9253 l 0.8351,0 z m 39.4328,7.9923 -0.6874,-0.0459 -3.8141,-0.2296 -1.8498,0 -3.8141,0.2296 -0.6871,0 0.0491,-0.5511 0.54,0 c 1.2112,-0.1224 2.0463,-0.3676 2.5044,-0.735 0.4583,-0.3674 0.6877,-1.0335 0.6877,-1.9828 l 0,-10.5109 -17.9734,0 0,10.5109 c 0,0.8881 0.229,1.5313 0.6877,1.9369 0.4581,0.398 1.2932,0.6585 2.5044,0.7809 l 0.54,0 0,0.597 -0.6877,-0.0459 -3.8137,-0.2296 -1.8496,0 -3.814,0.2296 -0.6877,0 0.049,-0.5511 0.5406,0 c 1.2112,-0.1224 2.0457,-0.3676 2.5044,-0.735 0.4581,-0.3674 0.6871,-1.0335 0.6871,-1.9828 l 0,-22.3997 c 0,-0.8881 -0.229,-1.5313 -0.6871,-1.9369 -0.4587,-0.398 -1.2932,-0.6582 -2.5044,-0.7809 l -0.5406,0 0,-0.597 0.6877,0.0459 3.814,0.2296 1.8496,0 3.8143,-0.2296 0.6871,0 -0.049,0.5511 -0.54,0 c -1.2112,0.1227 -2.0463,0.3676 -2.5044,0.735 -0.4587,0.375 -0.6877,1.0335 -0.6877,1.9905 l 0,7.4715 17.9734,0 0,-7.4715 c 0,-0.8958 -0.2294,-1.539 -0.6877,-1.9446 -0.4581,-0.398 -1.2932,-0.6582 -2.5044,-0.7809 l -0.54,0 0,-0.597 0.6874,0.0459 3.814,0.2296 1.8496,0 3.814,-0.2296 0.6874,0 -0.049,0.5511 -0.54,0 c -1.2116,0.1227 -2.0464,0.3676 -2.5047,0.735 -0.4581,0.3674 -0.6874,1.0335 -0.6874,1.9828 l 0,22.3997 c 0,0.8881 0.2293,1.5313 0.6874,1.9369 0.4583,0.398 1.2931,0.6585 2.5047,0.7809 l 0.54,0 0,0.597 z m -7.0713,-15.2955 0,-1.4697 -17.9734,0 0,1.4697 17.9734,0 z m 37.0269,9.5999 c -0.7528,1.2937 -1.277,2.3961 -1.5715,3.2842 -0.229,1.0258 -0.4255,1.8221 -0.5893,2.4114 l -7.71,-0.2755 -7.6606,0 -3.8302,0.2755 -0.6876,0 0.049,-0.551 0.5403,0 c 1.2115,-0.1225 2.046,-0.3677 2.5047,-0.7351 0.4581,-0.375 0.6871,-1.0335 0.6871,-1.9905 l 0,-22.4302 c 0,-0.8958 -0.229,-1.539 -0.6871,-1.9369 -0.4587,-0.4057 -1.2932,-0.6659 -2.5047,-0.7886 l -0.5403,0 -0.049,-0.597 0.6876,0.0459 3.8302,0.2296 15.3216,0 0.9328,4.9606 -0.6871,0 c -0.426,-1.5692 -0.8594,-2.5415 -1.3016,-2.9012 -0.442,-0.3597 -1.416,-0.5437 -2.922,-0.5437 l -8.7409,0 0,10.4729 11.0982,0 0,1.4697 -11.0982,0 0,10.7482 c 0,1.2554 0.1227,2.0134 0.3682,2.2736 0.2455,0.2603 0.9576,0.3907 2.1362,0.3907 l 5.2543,0 c 1.7354,0 2.9631,-0.2299 3.6831,-0.6891 0.7205,-0.4593 1.6044,-1.4698 2.6518,-3.0317 l 0.835,-0.0918 z m 56.3752,9.5541 c -0.1964,0.4592 -1.1132,1.018 -2.7502,1.6764 -1.6367,0.6585 -3.2901,0.9876 -4.9598,0.9876 -3.7975,0 -7.8896,-1.485 -12.2768,-4.4555 -2.5206,-1.7146 -5.9746,-4.6391 -10.3615,-8.7732 -3.6992,-3.4909 -6.1546,-5.4811 -7.3661,-5.9712 l -4.3214,0 0,9.3626 c 0,0.8881 0.229,1.5313 0.6877,1.9369 0.4581,0.398 1.2931,0.6585 2.5044,0.7809 l 0.54,0 0,0.597 -0.6877,-0.0459 -3.814,-0.2296 -1.8493,0 -3.8141,0.2296 -0.6876,0 0.049,-0.5511 0.5403,0 c 1.2115,-0.1224 2.046,-0.3676 2.5044,-0.735 0.4584,-0.3674 0.6874,-1.0335 0.6874,-1.9828 l 0,-22.3997 c 0,-0.8881 -0.229,-1.5313 -0.6874,-1.9369 -0.4584,-0.398 -1.2929,-0.6582 -2.5044,-0.7809 l -0.5403,0 0,-0.597 0.6877,0.0459 c 0.6874,0.0612 1.2931,0.1148 1.8331,0.1607 0.5403,0.046 1.2031,0.0689 1.9891,0.0689 0.5562,0 1.8658,-0.0383 3.9447,-0.1148 2.071,-0.0765 3.3066,-0.1148 3.6995,-0.1148 3.2984,0 5.9094,0.6815 7.8409,2.0441 1.9233,1.3626 2.8891,3.0696 2.8891,5.1213 0,1.9599 -0.663,3.6822 -1.9891,5.1676 -1.3257,1.4851 -3.0852,2.5951 -5.2787,3.3301 0.7858,0.4899 2.6354,2.128 5.5489,4.9147 3.274,3.1235 6.0074,5.5426 8.2009,7.2573 3.5359,2.7561 6.777,4.6239 9.7234,5.6038 1.2441,0.398 2.5699,0.5973 3.9776,0.5973 1.0802,0 2.1361,-0.1072 3.1674,-0.3218 1.0315,-0.2143 1.9891,-0.5051 2.8729,-0.8725 z m -29.4644,-24.62 c 0,-1.9599 -0.7365,-3.6133 -2.2099,-4.9606 -1.6368,-1.4698 -3.8631,-2.2048 -6.6785,-2.2048 -1.6041,0 -2.6189,0.1148 -3.0447,0.3444 -0.4257,0.2296 -0.6383,0.8651 -0.6383,1.9063 l 0,11.8964 7.1206,0 c 1.6367,-0.6429 2.9546,-1.5616 3.9529,-2.7558 0.9987,-1.1942 1.4979,-2.6028 1.4979,-4.2259 z m 14.2962,-8.8974 c 0.6248,0 1.2424,0.1622 1.8405,0.485 0.5976,0.3235 1.0701,0.7849 1.4009,1.3879 0.3362,0.5984 0.5029,1.2268 0.5029,1.8807 0,0.6446 -0.1658,1.2632 -0.4944,1.8582 -0.3313,0.5995 -0.7923,1.0604 -1.3887,1.3918 -0.5947,0.3285 -1.2129,0.4943 -1.8612,0.4943 -0.6522,0 -1.2725,-0.1658 -1.8675,-0.4943 -0.5961,-0.3314 -1.0576,-0.7923 -1.3889,-1.3918 -0.3314,-0.595 -0.4972,-1.2136 -0.4972,-1.8582 0,-0.6539 0.1666,-1.2823 0.5043,-1.8807 0.333,-0.603 0.8033,-1.0644 1.4037,-1.3879 0.5978,-0.3228 1.2138,-0.485 1.8456,-0.485 z m 0,0.6199 c -0.5289,0 -1.0417,0.135 -1.5403,0.4057 -0.4989,0.2701 -0.8887,0.6568 -1.1713,1.1585 -0.2798,0.4998 -0.4221,1.0239 -0.4221,1.5695 0,0.5364 0.1409,1.0551 0.4156,1.5517 0.2763,0.4935 0.6636,0.8808 1.161,1.1571 0.495,0.2747 1.0134,0.4156 1.5571,0.4156 0.5363,0 1.057,-0.1409 1.5548,-0.4156 0.4947,-0.2763 0.8816,-0.6636 1.154,-1.1571 0.2747,-0.4966 0.4119,-1.0153 0.4119,-1.5517 0,-0.5456 -0.1386,-1.0697 -0.4167,-1.5695 -0.2812,-0.5017 -0.6727,-0.8884 -1.1702,-1.1585 -0.5014,-0.2707 -1.0142,-0.4057 -1.5338,-0.4057 z m -1.6458,5.2011 0,-4.0337 1.3833,0 c 0.4777,0 0.8178,0.0374 1.0318,0.1114 0.2104,0.0759 0.3776,0.2046 0.5052,0.3934 0.1258,0.1857 0.1885,0.3813 0.1885,0.589 0,0.2948 -0.1055,0.5517 -0.3161,0.7694 -0.2078,0.2216 -0.4893,0.341 -0.8365,0.3682 0.1412,0.0598 0.258,0.1324 0.3419,0.2149 0.1624,0.1593 0.3614,0.4274 0.5972,0.8002 l 0.4904,0.7872 -0.7962,0 -0.3552,-0.6339 c -0.2826,-0.4989 -0.5069,-0.8132 -0.682,-0.9391 -0.1174,-0.0932 -0.2897,-0.1386 -0.5202,-0.1386 l -0.3821,0 0,1.7116 -0.65,0 z m 0.65,-2.268 0.7911,0 c 0.3756,0 0.6347,-0.0582 0.7702,-0.1693 0.1384,-0.1105 0.2081,-0.2619 0.2081,-0.4495 0,-0.1174 -0.0332,-0.2237 -0.1009,-0.3184 -0.0655,-0.0927 -0.1574,-0.1641 -0.2753,-0.2103 -0.1173,-0.0468 -0.3342,-0.07 -0.6545,-0.07 l -0.7387,0 0,1.2175 z" />
      <g
         id="g18">
        <path
           id="path20"
           style="fill:#1b1918;fill-rule:evenodd"
           d="m 180.3317,511.6212 0,-12.7647 5.6585,0 c 1.1384,0 2.0032,0.116 2.5945,0.3447 0.5916,0.2291 1.0642,0.633 1.4207,1.2127 0.3535,0.5825 0.529,1.2246 0.529,1.9258 0,0.9066 -0.2914,1.6674 -0.8796,2.2885 -0.5856,0.621 -1.4922,1.0165 -2.7164,1.1857 0.4487,0.214 0.7874,0.4252 1.0193,0.6361 0.4932,0.4518 0.9598,1.0193 1.4029,1.6971 l 2.2201,3.4741 -2.1252,0 -1.688,-2.6569 c -0.4935,-0.7639 -0.9006,-1.3524 -1.2215,-1.7563 -0.318,-0.4074 -0.6034,-0.6925 -0.856,-0.8533 -0.2526,-0.1632 -0.5083,-0.2763 -0.7696,-0.3415 -0.1933,-0.0389 -0.5054,-0.0596 -0.9423,-0.0596 l -1.9584,0 0,5.6676 -1.688,0 z m 1.688,-7.1297 3.6317,0 c 0.7696,0 1.376,-0.0802 1.81,-0.2409 0.4368,-0.1605 0.7667,-0.4159 0.9926,-0.7668 0.226,-0.3506 0.3388,-0.731 0.3388,-1.1441 0,-0.6032 -0.2169,-1.0995 -0.6568,-1.489 -0.4368,-0.3892 -1.1293,-0.5825 -2.0775,-0.5825 l -4.0388,0 0,4.2233 z m 14.457,0.9122 c 0,-2.1189 0.5675,-3.7771 1.7059,-4.9751 1.1381,-1.1976 2.6064,-1.798 4.4073,-1.798 1.1769,0 2.2407,0.2823 3.1861,0.8442 0.9451,0.5646 1.6671,1.3493 2.1634,2.3567 0.4963,1.0046 0.743,2.1487 0.743,3.4237 0,1.2957 -0.2586,2.4548 -0.7815,3.4744 -0.523,1.0222 -1.2632,1.7949 -2.2201,2.321 -0.9599,0.5261 -1.9914,0.7875 -3.0997,0.7875 -1.2039,0 -2.2765,-0.2883 -3.2219,-0.8708 -0.9479,-0.5794 -1.6642,-1.3728 -2.1515,-2.3774 -0.4875,-1.0015 -0.731,-2.0656 -0.731,-3.1862 z m 1.7413,0.0269 c 0,1.5395 0.4133,2.7491 1.2393,3.6346 0.8294,0.8859 1.8666,1.3286 3.1147,1.3286 1.2722,0 2.3182,-0.4459 3.1385,-1.3405 0.8204,-0.8943 1.2334,-2.1634 1.2334,-3.8069 0,-1.0372 -0.1783,-1.9437 -0.529,-2.7196 -0.3506,-0.7755 -0.8648,-1.3759 -1.5395,-1.8039 -0.6777,-0.4249 -1.4354,-0.639 -2.2765,-0.639 -1.1979,0 -2.226,0.4102 -3.088,1.2334 -0.8618,0.8203 -1.2929,2.1934 -1.2929,4.1133 z m 16.38,6.1906 0,-12.7647 1.6909,0 0,11.2578 6.2858,0 0,1.5069 -7.9767,0 z m 13.8328,0 0,-12.7647 9.2282,0 0,1.5069 -7.5402,0 0,3.9082 7.0617,0 0,1.4978 -7.0617,0 0,4.3449 7.8372,0 0,1.5069 -9.5252,0 z m 14.8552,-3.831 0,-1.5749 4.8175,0 0,1.5749 -4.8175,0 z m 10.5577,3.831 0,-12.7647 4.8146,0 c 0.847,0 1.495,0.0417 1.9409,0.1219 0.627,0.1041 1.1531,0.303 1.578,0.5973 0.4221,0.2914 0.7637,0.7044 1.0225,1.2305 0.2585,0.5289 0.3863,1.1086 0.3863,1.7416 0,1.0848 -0.3449,2.0061 -1.0343,2.7578 -0.6925,0.7492 -1.9406,1.1265 -3.7449,1.1265 l -3.2748,0 0,5.1891 -1.6883,0 z m 1.6883,-6.696 3.3018,0 c 1.0907,0 1.8663,-0.2021 2.3241,-0.6091 0.4575,-0.4071 0.6865,-0.9777 0.6865,-1.7147 0,-0.5352 -0.1338,-0.9927 -0.4042,-1.3731 -0.2704,-0.3804 -0.6242,-0.6302 -1.0669,-0.752 -0.2855,-0.0743 -0.8085,-0.1129 -1.5753,-0.1129 l -3.266,0 0,4.5618 z m 13.9427,6.696 0,-12.7647 1.6909,0 0,11.2578 6.2858,0 0,1.5069 -7.9767,0 z m 12.3945,0 4.9037,-12.7647 1.819,0 5.2245,12.7647 -1.9258,0 -1.4888,-3.8664 -5.3379,0 -1.3998,3.8664 -1.7949,0 z m 3.6822,-5.2426 4.3302,0 -1.3345,-3.5337 c -0.4042,-1.0729 -0.7073,-1.9556 -0.9034,-2.6479 -0.1636,0.8201 -0.3923,1.6317 -0.6894,2.4398 l -1.4029,3.7418 z m 15.6963,5.2426 0,-5.4059 -4.9187,-7.3588 2.0537,0 2.5172,3.8486 c 0.4635,0.7195 0.8946,1.4386 1.2957,2.1609 0.3835,-0.6687 0.847,-1.4207 1.3938,-2.2558 l 2.4727,-3.7537 1.9675,0 -5.0939,7.3588 0,5.4059 -1.688,0 z m 12.3942,0 0,-12.7647 1.6883,0 0,12.7647 -1.6883,0 z m 8.4566,0 0,-12.7647 1.7328,0 6.7048,10.0216 0,-10.0216 1.6197,0 0,12.7647 -1.7325,0 -6.7051,-10.0304 0,10.0304 -1.6197,0 z m 22.6775,-5.0077 0,-1.4949 5.4059,-0.009 0,4.7344 c -0.8291,0.6627 -1.6849,1.1591 -2.5676,1.495 -0.8827,0.3328 -1.7892,0.4992 -2.7164,0.4992 -1.2541,0 -2.3953,-0.2673 -3.4178,-0.8053 -1.0253,-0.5349 -1.798,-1.3136 -2.3213,-2.327 -0.523,-1.0165 -0.7843,-2.1518 -0.7843,-3.4061 0,-1.2422 0.2613,-2.4012 0.7815,-3.477 0.517,-1.0789 1.266,-1.8785 2.2408,-2.4015 0.9748,-0.5202 2.0982,-0.7815 3.3704,-0.7815 0.9212,0 1.7563,0.1485 2.5024,0.4487 0.7458,0.2971 1.3314,0.7132 1.7535,1.2481 0.4249,0.5352 0.7458,1.2305 0.9686,2.0894 l -1.5245,0.419 c -0.1933,-0.6509 -0.4308,-1.1619 -0.7132,-1.5336 -0.2854,-0.3713 -0.6925,-0.6687 -1.2214,-0.8915 -0.5261,-0.2228 -1.1146,-0.3359 -1.7566,-0.3359 -0.7728,0 -1.4414,0.1191 -2.003,0.3538 -0.5647,0.2347 -1.0165,0.5437 -1.3643,0.9272 -0.3447,0.3833 -0.6123,0.8025 -0.8053,1.2631 -0.324,0.7875 -0.4876,1.6436 -0.4876,2.5679 0,1.1381 0.1962,2.0892 0.5885,2.8559 0.3923,0.7668 0.9629,1.3346 1.7118,1.7059 0.7492,0.3717 1.5426,0.5587 2.3837,0.5587 0.7342,0 1.4473,-0.1425 2.1427,-0.4249 0.6984,-0.2795 1.2246,-0.5794 1.5843,-0.9005 l 0,-2.3775 -3.7508,0 z m 22.6329,0 0,-1.4949 5.406,-0.009 0,4.7344 c -0.8292,0.6627 -1.6849,1.1591 -2.5677,1.495 -0.8827,0.3328 -1.7892,0.4992 -2.7164,0.4992 -1.254,0 -2.3953,-0.2673 -3.4177,-0.8053 -1.0253,-0.5349 -1.798,-1.3136 -2.3213,-2.327 -0.523,-1.0165 -0.7844,-2.1518 -0.7844,-3.4061 0,-1.2422 0.2614,-2.4012 0.7815,-3.477 0.5171,-1.0789 1.266,-1.8785 2.2408,-2.4015 0.9749,-0.5202 2.0982,-0.7815 3.3704,-0.7815 0.9213,0 1.7564,0.1485 2.5025,0.4487 0.7457,0.2971 1.3314,0.7132 1.7535,1.2481 0.4249,0.5352 0.7458,1.2305 0.9686,2.0894 l -1.5245,0.419 c -0.1933,-0.6509 -0.4309,-1.1619 -0.7132,-1.5336 -0.2855,-0.3713 -0.6925,-0.6687 -1.2215,-0.8915 -0.5261,-0.2228 -1.1145,-0.3359 -1.7566,-0.3359 -0.7727,0 -1.4414,0.1191 -2.0029,0.3538 -0.5647,0.2347 -1.0166,0.5437 -1.3644,0.9272 -0.3447,0.3833 -0.6122,0.8025 -0.8053,1.2631 -0.324,0.7875 -0.4875,1.6436 -0.4875,2.5679 0,1.1381 0.1961,2.0892 0.5884,2.8559 0.3923,0.7668 0.963,1.3346 1.7119,1.7059 0.7492,0.3717 1.5426,0.5587 2.3836,0.5587 0.7342,0 1.4474,-0.1425 2.1427,-0.4249 0.6985,-0.2795 1.2246,-0.5794 1.5843,-0.9005 l 0,-2.3775 -3.7508,0 z m 10.3022,5.0077 4.9037,-12.7647 1.819,0 5.2245,12.7647 -1.9258,0 -1.4888,-3.8664 -5.3379,0 -1.3998,3.8664 -1.7949,0 z m 3.6823,-5.2426 4.3302,0 -1.3346,-3.5337 c -0.4042,-1.0729 -0.7072,-1.9556 -0.9034,-2.6479 -0.1636,0.8201 -0.3923,1.6317 -0.6894,2.4398 l -1.4028,3.7418 z m 13.3693,5.2426 0,-12.7647 2.5438,0 3.0197,9.0377 c 0.2792,0.8414 0.4845,1.4712 0.6092,1.8905 0.1457,-0.4638 0.3713,-1.1472 0.6806,-2.0478 l 3.0552,-8.8804 2.2737,0 0,12.7647 -1.6288,0 0,-10.6843 -3.7092,10.6843 -1.5244,0 -3.6913,-10.8655 0,10.8655 -1.6285,0 z m 18.7514,0 0,-12.7647 9.2282,0 0,1.5069 -7.5401,0 0,3.9082 7.0616,0 0,1.4978 -7.0616,0 0,4.3449 7.8372,0 0,1.5069 -9.5253,0 z" />
        <path
           id="path22"
           style="fill:none;stroke:#1b1918;stroke-width:1.98430002;stroke-linecap:butt;stroke-linejoin:miter;stroke-dasharray:none"
           d="m 130.8838,505.2824 28.8839,0" />
        <path
           id="path24"
           style="fill:none;stroke:#1b1918;stroke-width:1.98430002;stroke-linecap:butt;stroke-linejoin:miter;stroke-dasharray:none"
           d="m 439.8523,505.2824 28.8839,0" />
      </g>
    </g>
  </g>
</svg>
